<?xml version="1.0" standalone="no"?>
<!DOCTYPE svg PUBLIC "-//W3C//DTD SVG 20010904//EN"
 "http://www.w3.org/TR/2001/REC-SVG-20010904/DTD/svg10.dtd">
<svg version="1.0" xmlns="http://www.w3.org/2000/svg"
 width="360.000000pt" height="360.000000pt" viewBox="0 0 360.000000 360.000000"
 preserveAspectRatio="xMidYMid meet">
<metadata>
Created by potrace 1.14, written by Peter Selinger 2001-2017
</metadata>
<g transform="translate(0.000000,360.000000) scale(0.100000,-0.100000)"
fill="#000000" stroke="none">
<path d="M847 3153 c-1 0 -38 -2 -82 -4 -44 -1 -86 -7 -92 -12 -7 -5 -13 -7
-13 -4 0 4 -18 0 -40 -8 -22 -8 -41 -14 -43 -14 -1 0 -17 -6 -36 -12 -92 -32
-218 -119 -271 -187 -19 -24 -40 -49 -45 -56 -6 -6 -19 -29 -30 -51 -11 -22
-22 -42 -25 -45 -9 -8 -39 -112 -45 -155 -14 -104 -18 -282 -18 -790 0 -596 6
-739 33 -871 38 -179 98 -280 222 -372 60 -44 161 -93 223 -109 11 -2 38 -9
60 -15 22 -6 129 -12 238 -15 163 -4 211 -2 274 12 130 29 263 96 342 171 20
19 43 33 51 30 31 -8 36 -8 60 -7 48 3 54 13 56 113 l3 93 -21 -40 c-11 -22
-20 -45 -21 -52 0 -6 -5 -9 -12 -7 -6 3 -10 24 -9 48 1 30 -2 43 -10 40 -7 -3
-10 -26 -8 -64 2 -33 7 -58 11 -56 4 3 8 -4 8 -15 1 -10 -2 -19 -8 -19 -5 0
-9 5 -9 12 0 6 -10 2 -21 -11 -31 -33 -41 -15 -42 75 -3 97 14 123 78 119 21
-1 41 -7 43 -14 7 -21 20 -11 28 21 4 18 9 38 10 43 14 55 21 103 28 195 l4
55 -331 -1 c-183 -1 -336 -2 -342 -3 -11 -1 -12 -51 -2 -68 4 -6 3 -13 0 -17
-4 -3 -8 -29 -10 -57 -7 -130 -42 -169 -148 -160 -11 1 -30 9 -43 19 -28 22
-54 111 -39 137 7 13 6 16 -2 11 -8 -5 -10 205 -7 776 2 431 5 792 8 803 19
77 57 105 130 99 85 -8 101 -42 102 -216 1 -81 3 -88 21 -89 63 -3 642 -4 652
-1 14 4 10 97 -8 192 -6 30 -12 64 -13 75 -6 39 -43 131 -70 174 -52 82 -151
167 -256 218 -54 27 -150 64 -150 59 0 -2 -19 2 -42 9 -24 7 -83 13 -133 14
-49 2 -112 3 -138 4 -27 1 -49 1 -50 0z m329 -2293 c3 -8 8 -31 10 -50 4 -38
11 -86 19 -138 5 -32 4 -33 -28 -30 -19 2 -32 9 -32 17 0 8 -6 16 -12 19 -8 2
-13 -5 -13 -17 0 -18 -5 -21 -31 -19 l-31 2 6 56 c4 30 9 69 12 85 4 17 7 42
7 57 0 16 7 29 16 31 34 8 71 1 77 -13z m165 -1 c5 -8 9 -24 9 -36 0 -18 -5
-22 -22 -19 -13 3 -30 5 -38 5 -12 1 -13 3 -1 10 8 5 9 11 3 15 -6 3 -13 2
-16 -3 -9 -14 4 -41 19 -41 22 0 62 -56 59 -81 -1 -13 -3 -32 -3 -41 -1 -24
-64 -41 -97 -26 -13 6 -26 19 -29 30 -3 10 -7 26 -10 36 -4 13 2 17 25 18 17
1 31 -2 31 -7 1 -5 2 -14 3 -21 2 -18 26 -22 26 -4 0 17 -21 39 -63 68 -20 14
-24 23 -20 53 2 20 9 42 16 50 16 17 96 13 108 -6z m142 9 c9 -7 18 -25 21
-41 4 -24 2 -27 -19 -23 -26 5 -48 -15 -26 -22 54 -18 69 -113 21 -136 -14 -7
-31 -11 -37 -10 -7 1 -19 2 -25 3 -26 3 -40 19 -44 50 -2 17 1 32 6 32 40 5
45 3 48 -24 2 -15 8 -25 13 -22 18 12 8 45 -18 62 -39 25 -49 40 -51 78 -2 25
3 38 20 49 27 19 68 21 91 4z"/>
<path d="M1125 760 c-1 -16 4 -31 10 -34 7 -2 9 9 7 30 -5 42 -17 45 -17 4z"/>
<path d="M1430 820 c0 -11 5 -20 10 -20 6 0 10 9 10 20 0 11 -4 20 -10 20 -5
0 -10 -9 -10 -20z"/>
<path d="M3435 2553 c-44 -19 -84 -36 -90 -37 -5 -2 -27 -11 -49 -20 -21 -10
-59 -25 -85 -35 -42 -17 -46 -21 -48 -57 -1 -22 -4 -70 -7 -108 -3 -38 -8
-103 -11 -145 -6 -88 -12 -168 -21 -266 -3 -38 -7 -99 -9 -135 -2 -36 -7 -96
-9 -135 -3 -38 -8 -112 -11 -164 -11 -181 -14 -190 -69 -242 -28 -27 -85 -48
-148 -55 -45 -5 -558 -5 -683 0 -87 4 -106 2 -147 -17 -50 -23 -90 -77 -83
-112 2 -11 4 -23 4 -28 2 -13 1161 -8 1201 6 41 14 117 66 144 98 16 19 69
114 71 129 1 3 7 32 14 65 8 33 15 71 16 85 2 14 6 48 10 75 9 70 14 113 20
165 2 25 7 63 9 85 6 45 17 137 21 175 1 14 6 57 9 95 4 39 9 81 11 95 3 14 7
57 10 95 5 69 13 147 20 195 3 21 9 85 20 203 3 35 -9 34 -110 -10z m-870
-1422 c3 -5 1 -12 -5 -16 -5 -3 -10 1 -10 9 0 18 6 21 15 7z m379 -12 c-6 -11
-24 -2 -24 11 0 5 7 7 15 4 8 -4 12 -10 9 -15z m-789 2 c-11 -5 -23 -7 -27 -4
-5 2 -8 -1 -8 -7 0 -6 -7 -18 -15 -26 -30 -30 -18 -41 46 -42 93 0 81 -10 -15
-11 -47 -1 -86 1 -86 5 0 3 14 25 30 50 26 37 36 44 63 43 26 0 28 -2 12 -8z
m75 2 c0 -5 -11 -8 -25 -8 -14 0 -25 3 -25 8 0 4 11 7 25 7 14 0 25 -3 25 -7z
m60 3 c0 -11 -19 -15 -25 -6 -3 5 1 10 9 10 9 0 16 -2 16 -4z m40 0 c0 -11
-19 -15 -25 -6 -3 5 1 10 9 10 9 0 16 -2 16 -4z m40 0 c0 -2 -7 -6 -15 -10 -8
-3 -15 -1 -15 4 0 6 7 10 15 10 8 0 15 -2 15 -4z m47 -7 c-14 -8 -22 -8 -30 0
-8 8 -3 11 19 11 25 -1 27 -2 11 -11z m53 7 c0 -2 -7 -6 -15 -10 -8 -3 -15 -1
-15 4 0 6 7 10 15 10 8 0 15 -2 15 -4z m59 -6 c-10 -7 -49 -2 -49 5 0 2 14 3
31 3 17 -1 25 -4 18 -8z m91 6 c0 -2 -9 -6 -20 -9 -11 -3 -20 -1 -20 4 0 5 9
9 20 9 11 0 20 -2 20 -4z m30 -6 c0 -5 -4 -10 -10 -10 -5 0 -10 5 -10 10 0 6
5 10 10 10 6 0 10 -4 10 -10z m156 1 c-5 -7 -136 -5 -144 3 -3 4 29 6 71 5 42
-1 75 -4 73 -8z m101 2 c-10 -9 -87 -10 -87 -1 0 5 21 8 47 8 25 0 43 -3 40
-7z m97 0 c4 -5 11 -8 14 -8 4 -1 28 -10 54 -22 25 -12 57 -25 70 -29 22 -8
22 -8 -7 -14 -18 -4 -34 -2 -40 5 -5 6 -36 21 -68 34 -31 13 -60 27 -63 32 -6
11 30 12 40 2z m-119 -73 c3 -5 1 -10 -4 -10 -6 0 -11 5 -11 10 0 6 2 10 4 10
3 0 8 -4 11 -10z m65 6 c0 -3 -4 -8 -10 -11 -5 -3 -10 -1 -10 4 0 6 5 11 10
11 6 0 10 -2 10 -4z m40 0 c0 -2 -7 -7 -16 -10 -8 -3 -12 -2 -9 4 6 10 25 14
25 6z m65 -6 c3 -6 -1 -7 -9 -4 -18 7 -21 14 -7 14 6 0 13 -4 16 -10z m-810
-10 c3 -5 1 -10 -4 -10 -6 0 -11 5 -11 10 0 6 2 10 4 10 3 0 8 -4 11 -10z m30
0 c3 -5 1 -10 -4 -10 -6 0 -11 5 -11 10 0 6 2 10 4 10 3 0 8 -4 11 -10z m30 0
c3 -5 1 -10 -4 -10 -6 0 -11 5 -11 10 0 6 2 10 4 10 3 0 8 -4 11 -10z m69 -1
c3 -3 -5 -5 -19 -5 -13 0 -22 3 -19 7 4 8 30 6 38 -2z m76 7 c0 -3 -4 -8 -10
-11 -5 -3 -10 -1 -10 4 0 6 5 11 10 11 6 0 10 -2 10 -4z m30 0 c0 -3 -4 -8
-10 -11 -5 -3 -10 -1 -10 4 0 6 5 11 10 11 6 0 10 -2 10 -4z m50 -1 c0 -7 -30
-13 -34 -7 -3 4 4 9 15 9 10 1 19 0 19 -2z m49 -5 c-6 -5 -18 -6 -26 -3 -19 8
-16 11 13 11 17 0 22 -3 13 -8z m64 3 c-7 -2 -21 -2 -30 0 -10 3 -4 5 12 5 17
0 24 -2 18 -5z m95 0 c-10 -2 -26 -2 -35 0 -10 3 -2 5 17 5 19 0 27 -2 18 -5z
m80 0 c-10 -2 -28 -2 -40 0 -13 2 -5 4 17 4 22 1 32 -1 23 -4z"/>
<path d="M1308 2365 c-2 -2 -16 -5 -33 -8 -74 -12 -120 -33 -164 -76 -56 -56
-68 -97 -69 -224 0 -162 33 -216 198 -328 52 -35 100 -68 106 -74 6 -5 23 -19
37 -30 15 -11 27 -27 27 -37 0 -9 3 -19 8 -21 6 -4 7 -55 3 -119 0 -10 -10
-27 -21 -38 -16 -16 -24 -17 -48 -9 -16 5 -29 15 -29 22 -1 7 -3 27 -6 45 -2
18 0 35 4 38 5 3 6 10 3 16 -4 6 -8 32 -8 57 l-1 46 -128 1 c-72 1 -130 -3
-133 -8 -7 -11 -6 -109 1 -174 6 -64 34 -121 74 -154 62 -52 65 -55 68 -53 2
1 8 1 15 -2 7 -2 31 -9 52 -15 21 -7 70 -12 108 -12 210 1 329 95 324 255 -1
21 2 37 6 37 4 0 6 6 3 13 -2 6 -6 41 -10 77 -10 108 -24 139 -93 207 -34 35
-67 63 -72 63 -5 0 -15 6 -22 13 -7 7 -35 26 -63 41 -27 16 -52 32 -55 36 -3
4 -15 12 -27 19 -36 19 -53 63 -49 125 4 63 8 72 35 79 39 10 54 -15 57 -89 1
-38 3 -72 3 -75 1 -3 61 -5 134 -5 l132 1 0 70 c0 39 -3 84 -8 100 -4 17 -10
39 -12 49 -13 60 -149 135 -245 135 -8 0 -34 2 -57 4 -24 2 -44 3 -45 2z"/>
<path d="M1849 2318 c-1 -28 -1 -144 0 -174 1 -18 8 -23 39 -26 21 -1 51 -1
67 2 17 3 47 3 68 -1 20 -3 37 -3 37 0 0 4 17 6 38 4 l39 -2 -1 107 -1 107
-142 3 c-143 2 -143 2 -144 -20z"/>
<path d="M2323 2323 c-3 -10 -8 -22 -11 -27 -3 -5 1 -6 8 -1 9 5 11 4 6 -4
-11 -17 -14 -111 -4 -111 5 0 4 -8 -1 -18 -18 -35 2 -45 88 -46 l81 0 0 -441
-1 -440 128 -3 c134 -3 178 2 168 18 -8 13 -8 297 0 309 3 5 2 12 -2 14 -5 3
-7 127 -5 275 l3 270 82 -1 82 -2 3 113 3 112 -311 0 c-287 0 -311 -1 -317
-17z"/>
<path d="M1851 2038 c-4 -13 -6 -727 -2 -796 1 -10 33 -12 144 -10 l142 3 0
408 c1 276 -2 407 -10 408 -5 1 -68 2 -139 3 -112 1 -129 -1 -135 -16z"/>
<path d="M1710 860 c-17 -17 -20 -33 -20 -103 0 -98 15 -121 76 -119 50 2 72
33 65 91 0 5 -9 8 -18 6 -10 -2 -24 -4 -31 -4 -7 -1 -12 -7 -11 -13 3 -29 -2
-49 -11 -43 -12 7 -11 153 1 161 8 5 13 -23 10 -52 -1 -6 12 -11 29 -12 29 -1
30 1 30 43 0 39 -3 44 -31 54 -46 16 -66 14 -89 -9z"/>
<path d="M1856 870 c-1 -3 -2 -54 -2 -115 l1 -110 30 -3 30 -3 1 118 0 118
-29 0 c-15 1 -30 -2 -31 -5z"/>
<path d="M1959 871 c0 -3 -2 -15 -4 -26 -2 -11 -6 -40 -9 -65 -3 -25 -8 -66
-12 -92 l-6 -48 31 0 c20 0 31 5 31 14 0 7 8 20 17 27 15 12 16 12 11 -8 -6
-23 7 -33 42 -33 16 0 18 7 14 48 -3 26 -10 78 -17 116 l-12 70 -42 1 c-24 1
-43 -1 -44 -4z m51 -122 c0 -17 -4 -28 -10 -24 -5 3 -8 16 -6 28 6 28 5 27 11
27 3 0 5 -14 5 -31z"/>
<path d="M2078 872 c-23 -4 -19 -42 4 -42 11 0 18 -8 19 -20 1 -11 2 -26 3
-32 1 -7 -3 -16 -9 -20 -6 -5 -6 -8 0 -8 6 0 10 -25 9 -56 l-1 -55 30 3 31 3
0 90 c1 84 2 90 22 93 16 2 20 8 17 23 -3 10 -10 19 -17 20 -37 3 -93 4 -108
1z"/>
<path d="M2219 876 c-1 -1 -2 -54 -4 -118 l-2 -118 28 0 c16 0 29 3 30 8 6 56
2 215 -6 220 -8 5 -42 11 -46 8z"/>
<path d="M2325 867 c-20 -12 -22 -22 -30 -116 -7 -90 35 -132 107 -108 16 5
25 13 22 18 -3 5 -1 9 4 9 14 0 10 176 -4 190 -17 17 -76 22 -99 7z m51 -117
c1 -61 -1 -78 -9 -64 -13 24 -15 155 -2 151 6 -2 11 -41 11 -87z"/>
<path d="M2478 872 c-15 -3 -17 -17 -16 -118 1 -116 4 -123 41 -108 14 5 15
52 1 77 -5 8 -2 8 7 0 7 -7 18 -28 23 -45 9 -26 17 -33 36 -33 21 0 25 5 24
28 -1 15 3 27 7 27 5 0 6 6 3 14 -9 24 -11 107 -3 112 5 2 5 12 2 22 -18 48
-61 30 -55 -22 6 -48 -5 -46 -18 3 -11 40 -23 50 -52 43z"/>
<path d="M2691 863 c-40 -34 -33 -205 9 -218 47 -15 63 -13 85 10 21 21 24 32
24 104 0 47 -4 81 -10 81 -6 0 -7 5 -4 10 7 11 -35 30 -65 30 -10 0 -27 -8
-39 -17z m58 -107 c2 -95 -16 -111 -21 -17 -3 77 0 104 11 96 5 -2 9 -38 10
-79z"/>
<path d="M2836 870 c-2 -3 -4 -56 -5 -117 l-1 -113 30 0 c31 0 36 14 31 72 -1
9 8 19 19 23 27 9 24 52 -3 47 -14 -3 -18 2 -15 20 2 15 11 24 25 26 14 2 21
10 20 23 -1 10 -4 19 -7 20 -22 4 -92 4 -94 -1z"/>
<path d="M3004 761 l1 -116 56 -3 c69 -3 90 12 85 63 -2 20 -9 42 -15 49 -8
10 -9 16 -1 21 5 3 10 22 10 40 0 42 -25 58 -91 60 l-46 1 1 -115z m79 38 c-7
-26 -24 -13 -19 14 3 12 5 24 5 27 1 3 5 -1 10 -9 5 -7 6 -22 4 -32z m-1 -94
c-7 -37 -19 -30 -19 10 0 26 3 32 12 25 7 -6 10 -21 7 -35z"/>
<path d="M3172 870 c-6 -4 -9 -187 -3 -222 0 -5 13 -8 27 -8 18 0 25 5 23 18
-3 30 1 86 5 81 4 -4 11 -46 15 -91 2 -15 41 -8 42 7 1 8 3 20 4 25 1 6 3 19
4 30 2 39 18 19 17 -22 -1 -39 2 -43 24 -46 l25 -3 -1 113 c-1 62 -2 116 -3
120 -1 5 -19 5 -73 -1 -5 -1 -8 -16 -8 -35 0 -19 -5 -38 -12 -42 -6 -4 -9 -3
-5 2 3 5 2 25 -2 44 -6 30 -10 34 -39 35 -18 0 -36 -2 -40 -5z"/>
<path d="M3400 862 c-19 -15 -22 -28 -23 -100 -1 -45 3 -88 8 -95 13 -17 46
-34 63 -31 6 1 18 2 26 3 25 2 46 31 46 62 0 16 -3 29 -7 30 -5 0 -18 2 -30 3
-19 2 -23 -2 -23 -26 0 -27 -19 -41 -21 -15 -5 83 -3 121 8 135 11 15 12 12
13 -19 0 -33 2 -36 30 -35 34 1 34 2 25 55 -5 33 -11 40 -37 45 -45 9 -54 8
-78 -12z"/>
</g>
</svg>
